<svg aria-hidden="true" style="position:absolute;width:0;height:0" xmlns="http://www.w3.org/2000/svg" overflow="hidden"><defs><symbol id="icon-email" viewBox="0 0 43 32"><path  d="M38.667 0H4C1.794 0 0 1.675 0 3.734v22.404c0 2.059 1.794 3.734 4 3.734h34.667c2.206 0 4-1.675 4-3.734V3.734c0-2.059-1.794-3.734-4-3.734zm0 2.489c.181 0 .353.035.511.096L21.334 17.022 3.49 2.585c.158-.061.33-.096.511-.096h34.667zm0 24.894H4c-.736 0-1.333-.558-1.333-1.245V5.216L20.46 19.611c.251.203.563.304.874.304s.622-.101.874-.304L40.001 5.216v20.922c0 .687-.598 1.245-1.333 1.245z"/></symbol>
<symbol id="icon-close-button" viewBox="0 0 32 32">
<path d="M32 3.223l-3.223-3.223-12.777 12.777-12.777-12.777-3.223 3.223 12.777 12.777-12.777 12.777 3.223 3.223 12.777-12.777 12.777 12.777 3.223-3.223-12.777-12.777 12.777-12.777z"></path>
</symbol>
<symbol id="cross" viewBox="0 0 32 32">
<path d="M23.734 10.304l-1.504-1.504-5.963 5.962-5.962-5.962-1.504 1.504 5.962 5.962-5.962 5.963 1.504 1.504 5.962-5.963 5.963 5.963 1.504-1.504-5.963-5.963 5.963-5.962z"></path>
</symbol>
<symbol id="menu" viewBox="0 0 32 32">
<path d="M6.4 11.734v-2.134h19.2v2.134h-19.2zM6.4 17.066h19.2v-2.133h-19.2v2.133zM6.4 22.4h19.2v-2.134h-19.2v2.134z"></path>
</symbol>

<symbol id="icon-github" viewBox="0 0 32 32">
<path d="M16 1.28c-8.121 0-14.72 6.599-14.72 14.72s6.599 14.72 14.72 14.72c8.121 0 14.72-6.599 14.72-14.72s-6.599-14.72-14.72-14.72zM16 2.56c7.429 0 13.44 6.011 13.44 13.44 0 0.046-0.003 0.091-0.004 0.136-0.409-0.038-0.882-0.074-1.484-0.095-0.85-0.030-1.922-0.021-3.137 0.039 0.045-0.314 0.077-0.632 0.078-0.959 0.062-1.198-0.34-2.32-0.995-3.31 0.158-0.546 0.344-1.242 0.39-2.030 0.053-0.899-0.025-1.895-0.746-2.569l-0.185-0.173h-0.253c-1.717 0-2.893 0.719-3.611 1.289-1.038-0.402-2.205-0.649-3.492-0.649-1.295 0-2.473 0.25-3.554 0.651-0.718-0.57-1.895-1.291-3.614-1.291h-0.251l-0.185 0.171c-0.703 0.653-0.768 1.622-0.724 2.516 0.039 0.789 0.213 1.506 0.369 2.079-0.666 1.010-1.065 2.16-1.065 3.297 0 0.327 0.030 0.647 0.075 0.961-1.156-0.054-2.186-0.064-3.004-0.035-0.601 0.021-1.074 0.057-1.484 0.095-0-0.042-0.004-0.083-0.004-0.125 0-7.429 6.011-13.44 13.44-13.44zM9.214 8.404c1.291 0.122 2.263 0.699 2.713 1.099l0.3 0.265 0.37-0.151c1.012-0.417 2.141-0.656 3.404-0.656s2.392 0.241 3.328 0.65l0.375 0.165 0.306-0.273c0.45-0.4 1.423-0.977 2.715-1.099 0.172 0.285 0.321 0.69 0.285 1.303-0.043 0.733-0.239 1.532-0.387 2.006l-0.096 0.309 0.191 0.261c0.633 0.864 0.956 1.798 0.901 2.786l-0.001 0.018v0.018c0 1.597-0.575 2.875-1.8 3.823s-3.159 1.554-5.88 1.554c-2.721 0-4.656-0.607-5.881-1.554s-1.799-2.225-1.799-3.822c0-0.937 0.338-1.969 0.964-2.821l0.188-0.255-0.090-0.304c-0.148-0.504-0.33-1.321-0.366-2.059-0.030-0.614 0.115-1.001 0.262-1.261zM5.686 16.654c0.452 0.006 0.971 0.030 1.49 0.056 0.050 0.2 0.106 0.396 0.175 0.587-2.117 0.045-3.7 0.258-4.676 0.44-0.041-0.32-0.074-0.643-0.092-0.97 0.721-0.068 1.738-0.131 3.104-0.114zM26.314 16.664c1.365-0.017 2.381 0.045 3.102 0.114-0.018 0.322-0.051 0.641-0.091 0.956-1.011-0.185-2.637-0.398-4.809-0.433 0.067-0.188 0.123-0.381 0.172-0.576 0.573-0.031 1.132-0.055 1.625-0.061zM7.624 17.933c0.382 0.765 0.928 1.449 1.649 2.006 0.986 0.762 2.268 1.295 3.832 1.58-0.205 0.21-0.391 0.441-0.556 0.685l-0.039-0.034c0.004-0.004-0.318 0.157-0.799 0.2s-1.073 0.030-1.599 0.030c-0.784 0-1.129-0.37-1.681-1.045-0.306-0.412-0.678-0.745-1.040-0.999-0.37-0.259-0.686-0.442-1.077-0.508l-0.053-0.009h-0.054c-0.299 0-0.588 0.022-0.857 0.33-0.135 0.154-0.228 0.44-0.168 0.681s0.213 0.39 0.35 0.481c0.875 0.583 1.029 1.737 1.577 2.764 0.512 1.020 1.617 1.504 2.746 1.504h1.664v3.074c-4.501-1.589-7.895-5.503-8.748-10.304 0.98-0.185 2.62-0.406 4.851-0.438zM24.245 17.938c2.28 0.020 3.967 0.241 4.984 0.429-0.852 4.803-4.247 8.718-8.749 10.307v-3.33c0-1.014-0.333-2.132-0.913-3.065-0.176-0.283-0.383-0.551-0.614-0.791 1.482-0.293 2.699-0.816 3.646-1.549 0.72-0.556 1.264-1.238 1.645-2.001zM15.168 21.824h1.793c0.52 0 1.075 0.415 1.52 1.13s0.72 1.676 0.72 2.39v3.711c-1.026 0.25-2.097 0.385-3.2 0.385s-2.174-0.135-3.2-0.385v-3.711c0-0.698 0.299-1.657 0.774-2.375s1.074-1.145 1.594-1.145zM7.878 22.58c0.554 0.575 1.225 1.1 2.235 1.1 0.499 0 1.121 0.018 1.713-0.035 0.002-0 0.004-0.001 0.006-0.001-0.078 0.224-0.136 0.449-0.185 0.676h-1.79c-0.789 0-1.347-0.285-1.604-0.799l-0.005-0.009-0.004-0.008c-0.105-0.195-0.243-0.586-0.366-0.925z"></path>
</symbol>



<symbol id="icon-phone" viewBox="0 0 21 32"><path d="M18.133 0H3.2C1.435 0 0 1.34 0 2.987v25.889c0 1.647 1.435 2.987 3.2 2.987h14.933c1.765 0 3.2-1.34 3.2-2.987V2.987c0-1.647-1.435-2.987-3.2-2.987zM3.2 1.991h14.933c.589 0 1.067.446 1.067.996v20.91H2.133V2.987c0-.549.478-.996 1.067-.996zm14.933 27.881H3.2c-.589 0-1.067-.446-1.067-.996v-2.987H19.2v2.987c0 .55-.478.996-1.067.996z"/><path fill="var(--color1, #757575)" d="M5.021 27.177c.417.389.417 1.02 0 1.409s-1.092.389-1.508 0c-.417-.389-.417-1.02 0-1.409s1.092-.389 1.508 0z"/></symbol>
<symbol id="icon-css" viewBox="0 0 32 32">
<path fill="#0277bd" style="fill: var(--color1, #0277bd)" d="M27.333 3.333h-22.667l2 22.667 9.333 2.667 9.333-2.667 2-22.667z"></path>
<path fill="#039be5" style="fill: var(--color2, #039be5)" d="M16 5.333v21.267l7.467-2.133 1.667-19.133z"></path>
<path fill="#fff" style="fill: var(--color3, #fff)" d="M22.067 8.667h-6.067v2.667h3.267l-0.2 2.667h-3.067v2.667h2.933l-0.2 3-2.733 0.933v2.8l5.267-1.733 0.467-7.667z"></path>
<path fill="#eee" style="fill: var(--color4, #eee)" d="M16 8.667v2.667h-5.933l-0.2-2.667h6.133zM12.933 14l0.133 2.667h2.933v-2.667h-3.067zM13.2 18h-2.667l0.2 3.667 5.267 1.733v-2.8l-2.733-0.933-0.067-1.667z"></path>
</symbol>
<symbol id="icon-skype" viewBox="0 0 32 32">
<path d="M9.14 0c-5.032 0-9.14 4.045-9.14 9.020 0 1.572 0.44 3.030 1.16 4.32-0.175 0.915-0.28 1.857-0.28 2.82 0 8.332 6.848 15.080 15.28 15.080 0.88 0 1.738-0.078 2.58-0.22 1.238 0.622 2.637 0.98 4.12 0.98 5.032 0 9.14-4.043 9.14-9.020 0-1.355-0.332-2.625-0.88-3.78 0.207-0.988 0.34-1.997 0.34-3.040 0-8.328-6.865-15.080-15.3-15.080-0.807 0-1.602 0.080-2.38 0.2-1.363-0.797-2.94-1.28-4.64-1.28zM9.14 1.28c1.543 0 2.97 0.427 4.18 1.18 0.13 0.085 0.285 0.12 0.44 0.1 0.783-0.132 1.582-0.2 2.4-0.2 7.753 0 14.020 6.175 14.020 13.8 0 1.018-0.105 2.005-0.32 2.96-0.040 0.148-0.025 0.302 0.040 0.44 0.525 1.032 0.82 2.183 0.82 3.42 0 4.277-3.508 7.74-7.86 7.74-1.348 0-2.617-0.335-3.72-0.92-0.122-0.063-0.262-0.085-0.4-0.060-0.835 0.152-1.703 0.22-2.58 0.22-7.753 0-14-6.168-14-13.8 0-0.95 0.095-1.883 0.28-2.78 0.033-0.158 0.002-0.322-0.080-0.46-0.688-1.15-1.080-2.47-1.080-3.9 0-4.272 3.51-7.74 7.86-7.74zM16.060 5.36c-1.685 0-3.2 0.228-4.5 0.7-0.005 0.003-0.015-0.003-0.020 0-1.313 0.48-2.383 1.21-3.12 2.16-0.745 0.955-1.14 2.098-1.14 3.32 0 1.265 0.372 2.402 1.1 3.3 0.695 0.855 1.625 1.525 2.76 2 1.080 0.453 2.412 0.832 3.96 1.16 1.107 0.23 2.005 0.445 2.64 0.64 0.563 0.172 1.005 0.43 1.32 0.72 0.255 0.235 0.36 0.468 0.36 0.9 0 0.51-0.207 0.848-0.82 1.26-0.61 0.413-1.457 0.66-2.58 0.66-0.822 0-1.455-0.13-1.86-0.32-0.453-0.21-0.79-0.465-1-0.74-0.262-0.34-0.515-0.788-0.76-1.34-0.26-0.602-0.598-1.113-1.040-1.48-0.47-0.39-1.072-0.58-1.7-0.58-0.742 0-1.438 0.238-1.96 0.72-0.515 0.48-0.82 1.145-0.82 1.84 0 1.008 0.378 2.017 1.060 2.98 0.672 0.96 1.572 1.732 2.64 2.3 1.498 0.785 3.36 1.16 5.54 1.16 1.817 0 3.44-0.275 4.82-0.84 1.387-0.567 2.5-1.38 3.26-2.44 0.755-1.055 1.137-2.288 1.14-3.6 0-1.082-0.218-2.050-0.68-2.86-0.448-0.782-1.080-1.438-1.86-1.94-0.747-0.48-1.642-0.877-2.66-1.2-0.983-0.31-2.085-0.605-3.28-0.86-0.010-0.002-0.010 0.002-0.020 0-0.92-0.21-1.595-0.375-1.98-0.48-0.352-0.098-0.727-0.227-1.080-0.4-0.307-0.152-0.518-0.332-0.66-0.5-0.107-0.13-0.14-0.215-0.14-0.42 0-0.303 0.115-0.535 0.62-0.86 0.495-0.322 1.213-0.5 2.18-0.5 1.058 0 1.76 0.195 2.060 0.42 0.418 0.31 0.81 0.78 1.14 1.4 0.008 0.008 0.012 0.012 0.020 0.020 0.335 0.568 0.642 0.988 1 1.3 0.445 0.385 1.035 0.54 1.68 0.54 0.745 0 1.445-0.273 1.96-0.8 0.497-0.508 0.8-1.158 0.8-1.84 0-0.658-0.195-1.328-0.54-1.96-0.355-0.65-0.9-1.24-1.6-1.78-0.715-0.553-1.598-0.987-2.62-1.3-1.043-0.32-2.262-0.46-3.62-0.46zM16.060 6.64c1.262 0 2.36 0.147 3.24 0.42 0.905 0.277 1.657 0.645 2.22 1.080 0.593 0.457 1.010 0.925 1.26 1.38 0.262 0.48 0.38 0.928 0.38 1.34 0 0.35-0.117 0.63-0.42 0.94-0.285 0.295-0.613 0.42-1.060 0.42-0.44 0-0.695-0.095-0.84-0.22-0.185-0.16-0.438-0.488-0.72-0.96-0.008-0.015-0.012-0.025-0.020-0.040-0.398-0.732-0.892-1.342-1.48-1.78-0.683-0.512-1.64-0.68-2.84-0.68-1.135 0-2.107 0.22-2.88 0.72-0.72 0.465-1.2 1.145-1.2 1.92 0 0.453 0.155 0.895 0.44 1.24 0.28 0.33 0.645 0.605 1.080 0.82 0.42 0.207 0.86 0.38 1.3 0.5 0.425 0.115 1.117 0.285 2.060 0.5 1.17 0.248 2.24 0.525 3.18 0.82 0.933 0.297 1.733 0.658 2.36 1.060 0.62 0.4 1.098 0.9 1.44 1.5 0.328 0.575 0.5 1.308 0.5 2.22 0 1.067-0.295 2.015-0.9 2.86-0.598 0.835-1.49 1.505-2.7 2-1.188 0.488-2.652 0.74-4.34 0.74-2.030 0-3.685-0.343-4.94-1-0.902-0.48-1.625-1.128-2.18-1.92-0.008 0-0.012 0-0.020 0-0.568-0.802-0.82-1.55-0.82-2.24 0-0.363 0.127-0.628 0.42-0.9 0.283-0.26 0.598-0.38 1.080-0.38 0.377 0 0.645 0.082 0.88 0.28 0.235 0.195 0.477 0.527 0.68 1 0.008 0.008 0.012 0.012 0.020 0.020 0.275 0.622 0.578 1.155 0.92 1.6 0.36 0.47 0.855 0.84 1.46 1.12 0.658 0.308 1.457 0.44 2.4 0.44 1.3 0 2.418-0.267 3.3-0.86 0.848-0.57 1.38-1.407 1.38-2.34 0-0.71-0.277-1.375-0.78-1.84-0.485-0.448-1.090-0.782-1.8-1-0.698-0.215-1.63-0.425-2.76-0.66-1.492-0.315-2.745-0.692-3.72-1.1-0.973-0.408-1.715-0.967-2.26-1.64-0.533-0.658-0.82-1.453-0.82-2.48 0-0.963 0.283-1.8 0.86-2.54 0.008 0 0.012 0 0.020 0 0.565-0.73 1.395-1.322 2.54-1.74 1.125-0.412 2.502-0.62 4.080-0.62z"></path>
</symbol>
<symbol id="icon-git" viewBox="0 0 32 32">
<path fill="#f4511e" style="fill: var(--color5, #f4511e)" d="M28.133 14.733l-10.867-10.867c-0.333-0.333-0.8-0.533-1.267-0.533 0 0 0 0 0 0-0.467 0-0.933 0.2-1.267 0.533l-2.333 2.333 2.733 2.733c0.267-0.133 0.533-0.2 0.867-0.2 1.133 0 2 0.867 2 2 0 0.333-0.067 0.6-0.2 0.867l2.667 2.667c0.267-0.133 0.533-0.2 0.867-0.2 1.133 0 2 0.867 2 2s-0.867 2-2 2c-1.133 0-2-0.867-2-2 0-0.333 0.067-0.6 0.2-0.867l-2.667-2.667c-0.067 0-0.133 0.067-0.2 0.067v6.933c0.8 0.267 1.333 1 1.333 1.867 0 1.133-0.867 2-2 2s-2-0.867-2-2c0-0.867 0.533-1.6 1.333-1.867v-7c-0.8-0.267-1.333-1-1.333-1.867 0-0.333 0.067-0.6 0.2-0.867l-2.733-2.733-7.6 7.667c-0.333 0.333-0.533 0.8-0.533 1.267s0.2 0.933 0.533 1.267l10.867 10.867c0 0 0 0 0 0 0.333 0.333 0.8 0.533 1.267 0.533s0.933-0.2 1.267-0.533l10.867-10.867c0.333-0.333 0.533-0.8 0.533-1.267s-0.2-0.933-0.533-1.267z"></path>
</symbol>
<symbol id="icon-html" viewBox="0 0 32 32">
<path fill="#e65100" style="fill: var(--color6, #e65100)" d="M27.333 3.333h-22.667l2 22.667 9.333 2.667 9.333-2.667 2-22.667z"></path>
<path fill="#ff6d00" style="fill: var(--color7, #ff6d00)" d="M16 5.333v21.267l7.467-2.133 1.667-19.133z"></path>
<path fill="#fff" style="fill: var(--color3, #fff)" d="M16 16.667v-2.667h5.733l-0.467 7.667-5.267 1.733v-2.8l2.733-0.933 0.2-3h-2.933zM21.933 11.333l0.2-2.667h-6.133v2.667h5.933z"></path>
<path fill="#eee" style="fill: var(--color4, #eee)" d="M16 20.6v2.8l-5.267-1.733-0.267-3.667h2.667l0.133 1.667 2.733 0.933zM12.733 11.333h3.267v-2.667h-6.067l0.467 8h5.6v-2.667h-3.067l-0.2-2.667z"></path>
</symbol>
<symbol id="icon-javascript" viewBox="0 0 32 32">
<path fill="#ffd600" style="fill: var(--color8, #ffd600)" d="M4 28v-24h24v24h-24z"></path>
<path fill="#000001" style="fill: var(--color9, #000001)" d="M19.692 21.965c0.461 0.749 0.963 1.467 2.025 1.467 0.892 0 1.36-0.443 1.36-1.057 0-0.734-0.484-0.995-1.465-1.422l-0.538-0.229c-1.553-0.659-2.585-1.484-2.585-3.227 0-1.607 1.23-2.829 3.152-2.829 1.369 0 2.352 0.474 3.061 1.715l-1.676 1.071c-0.369-0.659-0.767-0.918-1.385-0.918-0.631 0-1.030 0.398-1.030 0.918 0 0.643 0.4 0.903 1.323 1.301l0.538 0.229c1.83 0.779 2.862 1.575 2.862 3.365 0 1.928-1.523 2.985-3.567 2.985-1.999 0-3.135-1.003-3.767-2.245l1.692-1.123zM11.968 22.019c0.337 0.604 0.85 1.069 1.587 1.069 0.705 0 1.111-0.279 1.111-1.362v-7.059h2.222v7.401c0 2.245-1.302 3.266-3.203 3.266-1.718 0-2.958-1.164-3.463-2.245l1.746-1.069z"></path>
</symbol>
<symbol id="icon-react" viewBox="0 0 32 32">
<path fill="#80deea" style="fill: var(--color10, #80deea)" d="M16 22.667c-8.6 0-15.333-2.933-15.333-6.667s6.733-6.667 15.333-6.667c8.6 0 15.333 2.933 15.333 6.667s-6.733 6.667-15.333 6.667zM16 10.667c-8.4 0-14 2.733-14 5.333s5.6 5.333 14 5.333 14-2.733 14-5.333c0-2.6-5.6-5.333-14-5.333z"></path>
<path fill="#80deea" style="fill: var(--color10, #80deea)" d="M10.067 29.733c-0.667 0-1.2-0.133-1.733-0.467-3.267-1.867-2.4-9.133 1.867-16.6v0c2-3.467 4.467-6.4 6.867-8.267 2.6-2 4.933-2.6 6.533-1.667 1.667 0.933 2.267 3.267 1.867 6.533-0.4 3.067-1.733 6.667-3.733 10.133s-4.467 6.4-6.867 8.267c-1.733 1.333-3.4 2.067-4.8 2.067zM21.933 3.6c-1.067 0-2.467 0.6-4 1.8-2.267 1.8-4.6 4.6-6.533 7.933v0c-4.2 7.267-4.6 13.533-2.4 14.8 1.133 0.667 3 0.067 5.067-1.533 2.267-1.8 4.6-4.6 6.533-7.933s3.2-6.733 3.6-9.6c0.333-2.667-0.067-4.533-1.2-5.2-0.333-0.133-0.667-0.267-1.067-0.267z"></path>
<path fill="#80deea" style="fill: var(--color10, #80deea)" d="M22 29.733c-3.333 0-8.133-4.067-11.733-10.4-4.333-7.467-5.2-14.733-1.933-16.6v0c3.267-1.867 9.133 2.467 13.467 9.933 2 3.467 3.333 7.067 3.733 10.133 0.467 3.267-0.2 5.533-1.867 6.533-0.533 0.267-1.067 0.4-1.667 0.4zM9 3.867c-2.2 1.267-1.8 7.533 2.4 14.8s9.4 10.733 11.6 9.467c1.133-0.667 1.533-2.533 1.2-5.2-0.4-2.867-1.667-6.267-3.6-9.6-4.2-7.267-9.4-10.733-11.6-9.467v0z"></path>
<path fill="#80deea" style="fill: var(--color10, #80deea)" d="M18.667 16c0 1.473-1.194 2.667-2.667 2.667s-2.667-1.194-2.667-2.667c0-1.473 1.194-2.667 2.667-2.667s2.667 1.194 2.667 2.667z"></path>
</symbol>
<symbol id="icon-redux" viewBox="0 0 32 32">
<path fill="#7e57c2" style="fill: var(--color11, #7e57c2)" d="M15.333 2.667c-4.411 0-8 4.847-8 10.803 0 3.223 1.055 6.113 2.719 8.091-0.032 0.142-0.052 0.288-0.052 0.439 0 1.105 0.895 2 2 2s2-0.895 2-2-0.895-2-2-2c-0.21 0-0.408 0.041-0.598 0.101-1.265-1.614-2.069-3.985-2.069-6.631 0-4.854 2.691-8.803 6-8.803 2.558 0 4.741 2.365 5.603 5.679 0.748 0.231 1.491 0.521 2.22 0.872-0.77-4.879-3.983-8.551-7.823-8.551z"></path>
<path fill="#7e57c2" style="fill: var(--color11, #7e57c2)" d="M23.671 13.389c-2.631-1.595-5.583-2.295-8.121-1.973-0.367-0.454-0.921-0.75-1.55-0.75-1.105 0-2 0.895-2 2s0.895 2 2 2c0.848 0 1.569-0.53 1.859-1.275 2.079-0.253 4.541 0.354 6.775 1.709 4.269 2.587 6.447 7.046 4.855 9.941-0.551 1.003-1.524 1.715-2.812 2.060-1.524 0.407-3.338 0.263-5.151-0.352-0.559 0.515-1.166 0.999-1.817 1.445 1.701 0.745 3.464 1.136 5.113 1.136 0.827 0 1.625-0.098 2.373-0.298 1.827-0.489 3.227-1.536 4.047-3.028 2.102-3.821-0.397-9.48-5.571-12.615z"></path>
<path fill="#7e57c2" style="fill: var(--color11, #7e57c2)" d="M23.333 19.328c0-1.101-0.895-1.995-2-1.995s-2 0.893-2 1.995c0 0.446 0.152 0.854 0.4 1.186-0.853 1.868-2.496 3.711-4.708 5.052-2.577 1.563-5.457 2.135-7.703 1.535-1.288-0.345-2.261-1.057-2.812-2.060-1.135-2.063-0.347-4.917 1.74-7.325-0.215-0.763-0.375-1.56-0.471-2.383-3.38 3.198-4.739 7.549-3.021 10.673 0.82 1.492 2.22 2.539 4.047 3.028 0.747 0.2 1.545 0.298 2.373 0.298 2.231 0 4.671-0.712 6.884-2.053 2.557-1.55 4.455-3.718 5.473-5.975 1.009-0.102 1.799-0.942 1.799-1.975z"></path>
</symbol>
<symbol id="icon-sass" viewBox="0 0 32 32">
<path fill="#f06292" style="fill: var(--color12, #f06292)" d="M26.578 17.304c-1.025 0.005-1.913 0.251-2.657 0.619-0.272-0.543-0.548-1.021-0.594-1.377-0.054-0.415-0.117-0.663-0.051-1.157s0.351-1.194 0.347-1.247c-0.004-0.053-0.064-0.304-0.655-0.309s-1.097 0.114-1.157 0.27-0.173 0.507-0.244 0.874c-0.103 0.536-1.181 2.449-1.792 3.449-0.2-0.391-0.37-0.735-0.405-1.007-0.054-0.415-0.117-0.663-0.051-1.157s0.351-1.194 0.347-1.247c-0.004-0.053-0.064-0.304-0.655-0.309s-1.097 0.114-1.157 0.27-0.123 0.521-0.244 0.874c-0.121 0.353-1.553 3.543-1.928 4.37-0.191 0.421-0.357 0.76-0.475 0.991-0.001-0.001-0.001-0.001-0.001-0.001s-0.007 0.015-0.019 0.041c-0.101 0.197-0.16 0.305-0.16 0.305s0.001 0.001 0.002 0.004c-0.080 0.145-0.165 0.279-0.207 0.279-0.029 0-0.089-0.385 0.013-0.913 0.213-1.107 0.725-2.832 0.72-2.892-0.003-0.031 0.095-0.331-0.334-0.489-0.417-0.153-0.566 0.102-0.604 0.103-0.037 0.001-0.064 0.090-0.064 0.090s0.465-1.941-0.887-1.941c-0.845 0-2.016 0.925-2.593 1.763-0.364 0.199-1.143 0.624-1.969 1.078-0.317 0.175-0.641 0.353-0.949 0.522-0.021-0.023-0.042-0.046-0.063-0.069-1.639-1.749-4.669-2.985-4.541-5.337 0.047-0.855 0.344-3.105 5.822-5.835 4.487-2.236 8.080-1.621 8.701-0.257 0.887 1.949-1.92 5.569-6.58 6.092-1.775 0.199-2.711-0.489-2.943-0.745-0.245-0.27-0.281-0.282-0.373-0.231-0.149 0.083-0.055 0.321 0 0.463 0.139 0.362 0.71 1.004 1.683 1.324 0.857 0.281 2.941 0.435 5.462-0.54 2.824-1.092 5.029-4.131 4.381-6.67-0.659-2.583-4.941-3.432-8.995-1.992-2.415 0.857-5.027 2.203-6.905 3.959-2.233 2.088-2.589 3.906-2.442 4.665 0.521 2.699 4.241 4.456 5.73 5.758-0.073 0.041-0.143 0.079-0.205 0.113-0.747 0.369-3.582 1.853-4.291 3.421-0.805 1.778 0.128 3.054 0.745 3.226 1.913 0.532 3.875-0.425 4.931-1.999s0.926-3.621 0.442-4.556c-0.006-0.011-0.013-0.023-0.019-0.035 0.193-0.114 0.389-0.23 0.584-0.345 0.38-0.223 0.753-0.431 1.077-0.607-0.181 0.496-0.314 1.091-0.383 1.951-0.081 1.009 0.333 2.314 0.874 2.827 0.239 0.226 0.525 0.231 0.707 0.231 0.63 0 0.917-0.524 1.234-1.144 0.388-0.76 0.733-1.645 0.733-1.645s-0.432 2.391 0.745 2.391c0.429 0 0.861-0.557 1.053-0.84 0.001 0.003 0.001 0.005 0.001 0.005s0.011-0.019 0.033-0.055c0.045-0.068 0.070-0.111 0.070-0.111s0.001-0.005 0.002-0.013c0.173-0.299 0.555-0.982 1.129-2.108 0.741-1.455 1.452-3.277 1.452-3.277s0.066 0.445 0.283 1.183c0.127 0.433 0.398 0.913 0.612 1.373-0.172 0.239-0.277 0.375-0.277 0.375s0.001 0.003 0.003 0.007c-0.137 0.183-0.291 0.379-0.453 0.571-0.585 0.697-1.282 1.493-1.375 1.722-0.11 0.271-0.084 0.469 0.129 0.63 0.155 0.117 0.431 0.135 0.72 0.116 0.526-0.035 0.895-0.166 1.078-0.245 0.285-0.101 0.616-0.259 0.927-0.487 0.574-0.422 0.92-1.025 0.887-1.825-0.019-0.441-0.159-0.877-0.337-1.289 0.052-0.075 0.104-0.151 0.157-0.227 0.905-1.323 1.607-2.776 1.607-2.776s0.066 0.445 0.283 1.183c0.109 0.373 0.326 0.78 0.521 1.179-0.851 0.691-1.378 1.495-1.561 2.021-0.339 0.975-0.073 1.416 0.424 1.517 0.225 0.045 0.544-0.058 0.783-0.159 0.298-0.099 0.656-0.263 0.991-0.509 0.574-0.422 1.126-1.013 1.093-1.812-0.015-0.364-0.114-0.725-0.248-1.072 0.721-0.301 1.655-0.467 2.844-0.329 2.551 0.298 3.051 1.891 2.956 2.557s-0.631 1.033-0.81 1.144c-0.179 0.111-0.233 0.149-0.219 0.231 0.022 0.119 0.105 0.115 0.257 0.089 0.21-0.035 1.339-0.542 1.388-1.773 0.061-1.564-1.436-3.28-4.087-3.266zM6.913 23.933c-0.845 0.922-2.025 1.27-2.532 0.977-0.547-0.317-0.33-1.674 0.707-2.653 0.632-0.596 1.448-1.145 1.989-1.483 0.123-0.074 0.304-0.183 0.524-0.315 0.037-0.021 0.057-0.032 0.057-0.032l-0.001-0.001c0.043-0.025 0.086-0.051 0.131-0.079 0.378 1.393 0.012 2.619-0.875 3.586zM13.070 19.749c-0.294 0.717-0.91 2.553-1.285 2.455-0.322-0.085-0.518-1.48-0.064-2.853 0.228-0.691 0.716-1.517 1.003-1.838 0.461-0.516 0.969-0.685 1.093-0.475 0.157 0.267-0.561 2.262-0.746 2.712zM18.156 22.175c-0.125 0.065-0.239 0.106-0.292 0.075-0.039-0.023 0.051-0.109 0.051-0.109s0.636-0.685 0.887-0.996c0.146-0.181 0.315-0.397 0.499-0.637 0.001 0.024 0.002 0.048 0.002 0.071-0.001 0.82-0.793 1.373-1.147 1.596zM22.074 21.282c-0.093-0.066-0.077-0.28 0.229-0.947 0.12-0.262 0.395-0.703 0.871-1.124 0.055 0.173 0.089 0.339 0.088 0.494-0.006 1.032-0.742 1.417-1.187 1.577z"></path>
</symbol>

<symbol id="icon-button-icon" viewBox="0 0 32 32"><path fill="var(--color4, #fff)" d="M32 0L0 18l10.227 3.787L26 7 14.003 23.187l.009.003-.012-.003V32l5.735-6.691L27.002 28l4.999-28z"/></symbol><symbol id="icon-clock" viewBox="0 0 32 32"><path fill="var(--color2, #212121)" d="M31.296 15.301C31.295 6.849 24.441-.002 15.988 0S.685 6.855.687 15.308c.002 6.788 4.422 12.543 10.541 14.545l.108.031a.667.667 0 00.529-.065.636.636 0 00.283-.357l3.865-12.25a1.913 1.913 0 10-.852-3.63l.011-.005-5.106-5.107a.638.638 0 00-.902.902l5.103 5.109a1.847 1.847 0 00-.191.826c0 .602.283 1.137.723 1.48l.004.003-3.682 11.673C3.843 25.782.117 17.709 2.797 10.431S13.551-.573 20.829 2.108c7.278 2.681 11.004 10.754 8.323 18.032-1.345 3.581-4.003 6.406-7.374 7.938l-.088.036-.398-1.874a.639.639 0 00-1.05-.343l.001-.001-3.837 3.426a.637.637 0 00.227 1.083l.005.001 4.899 1.563a.637.637 0 00.818-.744l.001.004-.391-1.839c5.528-2.374 9.329-7.772 9.329-14.057v-.034.002zm-15.304-.637a.638.638 0 010 1.276.638.638 0 010-1.276zm2.1 14.864l2.184-1.948.603 2.84-2.787-.892z"/><path fill="var(--color3, #2196f3)" d="M15.354 3.185V4.46a.638.638 0 001.276 0V3.185a.638.638 0 10-1.276 0zM3.876 14.664a.638.638 0 000 1.276h1.275a.638.638 0 000-1.276H3.876zm24.232 1.275a.638.638 0 000-1.276h-1.275a.638.638 0 000 1.276h1.275z"/></symbol><symbol id="icon-monitor" viewBox="0 0 32 32"><path fill="var(--color3, #2196f3)" d="M14.926 14.965h1.066v4.798h-1.066v-4.798zm4.264 2.132h1.066v2.665H19.19v-2.665zm-8.529 1.599h1.066v1.066h-1.066v-1.066zm-3.198-.533h1.066v1.599H7.463v-1.599z"/><path fill="var(--color2, #212121)" d="M1.599 28.291h25.586a1.6 1.6 0 001.599-1.599V24.56a1.6 1.6 0 00-1.599-1.599h-.533V9.667l3.028-2.868a1.608 1.608 0 10-.742-.752l-.004-.01-2.281 2.162v-1.23a1.6 1.6 0 00-1.599-1.599H3.731a1.6 1.6 0 00-1.599 1.599v15.992h-.533A1.6 1.6 0 000 24.56v2.132a1.6 1.6 0 001.599 1.599zM30.384 4.837a.533.533 0 010 1.066.533.533 0 010-1.066zM3.198 6.969c0-.294.239-.533.533-.533h21.323c.294 0 .533.239.533.533v2.239l-1.066 1.013V8.036a.534.534 0 00-.534-.534H4.798a.534.534 0 00-.534.533v13.327c0 .294.239.533.534.533h19.189a.534.534 0 00.534-.533v-9.675l1.066-1.01V22.96H3.198V6.969zm4.798 6.93h-.005a1.6 1.6 0 101.112 2.748l1.853.93a.535.535 0 00.636-.122l3.939-4.432 3.872 2.902a.534.534 0 00.686-.039l3.365-3.188v8.131H5.331V8.568h18.123v2.661l-3.771 3.572-3.904-2.927a.534.534 0 00-.718.071v.001l-3.993 4.493-1.493-.746c.011-.064.017-.128.02-.193a1.6 1.6 0 00-1.599-1.599zm.533 1.599a.533.533 0 01-1.066 0 .533.533 0 011.066 0zm3.198 8.528h5.33v.533a.533.533 0 01-.533.533h-4.265a.533.533 0 01-.533-.533v-.533zm-10.66.534c0-.294.238-.533.533-.533h9.062v.533a1.6 1.6 0 001.599 1.599h4.265a1.6 1.6 0 001.599-1.599v-.533h9.062c.294 0 .533.239.533.533v2.132a.533.533 0 01-.533.533H1.601a.533.533 0 01-.533-.533V24.56z"/></symbol><symbol id="icon-facebook" viewBox="0 0 32 32"><path  d="M21.328 5.312h2.923V.224A36.478 36.478 0 0020.144 0h-.157.008c-4.213 0-7.099 2.65-7.099 7.52V12H8.25v5.688h4.646V32h5.698V17.69h4.461l.707-5.688h-5.168V8.08c0-1.643.443-2.768 2.734-2.768z"/></symbol><symbol id="icon-instagram" viewBox="0 0 32 32"><path  d="M31.968 9.408c-.074-1.701-.349-2.869-.742-3.882a7.839 7.839 0 00-1.85-2.837l-.001-.001A7.906 7.906 0 0026.597.861l-.054-.018C25.524.449 24.362.176 22.661.101 20.949.019 20.405 0 16.059 0c-4.344 0-4.888.019-6.595.094-1.699.074-2.869.349-3.88.742a7.847 7.847 0 00-2.839 1.85l-.001.001A7.9 7.9 0 00.919 5.465l-.018.054C.506 6.538.232 7.7.157 9.401c-.082 1.712-.101 2.256-.101 6.602 0 4.344.019 4.888.094 6.595.075 1.701.35 2.869.744 3.882a7.915 7.915 0 001.849 2.837l.001.001c.8.813 1.77 1.443 2.832 1.843 1.019.395 2.182.67 3.882.744 1.707.075 2.251.094 6.595.094 4.346 0 4.89-.019 6.595-.094 1.701-.074 2.869-.349 3.882-.742a8.237 8.237 0 004.664-4.628l.019-.055c.394-1.019.669-2.182.744-3.882.075-1.707.093-2.251.093-6.595s-.006-4.888-.08-6.595zm-2.88 13.066c-.07 1.563-.333 2.406-.55 2.97a5.341 5.341 0 01-3.004 3.024l-.036.012c-.56.219-1.411.482-2.968.55-1.688.075-2.194.094-6.464.094-4.269 0-4.782-.019-6.464-.094-1.563-.069-2.406-.331-2.97-.55a4.953 4.953 0 01-1.836-1.192l-.001-.001a4.978 4.978 0 01-1.184-1.803L3.6 25.45c-.218-.563-.48-1.413-.549-2.97-.075-1.688-.094-2.195-.094-6.464 0-4.27.019-4.784.094-6.464.069-1.563.331-2.406.549-2.97a4.897 4.897 0 011.198-1.837l.002-.002a4.972 4.972 0 011.806-1.182l.034-.011c.56-.219 1.411-.48 2.968-.55 1.688-.074 2.195-.093 6.464-.093 4.275 0 4.782.019 6.464.093 1.563.069 2.406.331 2.97.55a4.91 4.91 0 011.837 1.194c.531.52.938 1.144 1.195 1.84.218.56.48 1.411.549 2.968.075 1.688.094 2.194.094 6.464 0 4.269-.019 4.768-.094 6.458z"/><path  d="M16.059 7.782a8.223 8.223 0 00-8.219 8.221v.002a8.222 8.222 0 1016.444 0 8.222 8.222 0 00-8.222-8.222h-.002zm0 13.552a5.333 5.333 0 01.001-10.666h.001a5.334 5.334 0 110 10.668zM26.525 7.458a1.92 1.92 0 01-3.84 0 1.92 1.92 0 013.84 0z"/></symbol><symbol id="icon-linkedin" viewBox="0 0 32 32"><path  d="M31.992 32H32V20.262c0-5.741-1.235-10.163-7.947-10.163-3.227 0-5.392 1.77-6.277 3.45h-.093v-2.914h-6.365v21.363h6.627V21.42c0-2.786.528-5.48 3.978-5.48 3.398 0 3.45 3.179 3.45 5.658V32h6.619zM.528 10.635h6.635V32H.528V10.635zM3.843 0A3.843 3.843 0 000 3.843c0 2.12 1.722 3.878 3.843 3.878 2.12 0 3.842-1.757 3.842-3.878S5.965.002 3.844 0z"/></symbol><symbol id="icon-twitter" viewBox="0 0 32 32"><path  d="M32 6.078c-1.1.493-2.376.857-3.713 1.028l-.068.007a6.556 6.556 0 002.873-3.579l.013-.046a12.88 12.88 0 01-4.076 1.573l-.084.014A6.558 6.558 0 0015.6 9.557v.004c0 .52.043 1.021.152 1.496-5.454-.266-10.28-2.88-13.522-6.861a6.524 6.524 0 00-.902 3.313v.001a6.57 6.57 0 002.914 5.451 6.453 6.453 0 01-2.994-.823l.033.017v.072a6.592 6.592 0 005.213 6.44l.043.008a6.403 6.403 0 01-1.662.215h-.061.003c-.419 0-.843-.024-1.242-.112.85 2.598 3.261 4.509 6.13 4.57a13.093 13.093 0 01-8.122 2.8H1.57h.001-.062c-.531 0-1.055-.034-1.569-.099l.061.006c2.826 1.846 6.287 2.944 10.004 2.944h.063-.003c12.072 0 18.672-10 18.672-18.669 0-.288-.01-.57-.024-.848a13.203 13.203 0 003.258-3.355l.03-.047z"/></symbol>
<symbol id="icon-logo-1" viewBox="0 0 30 32"><path d="M4 0l4.872 4.468h13.589v12.465l4.872 4.468V0H4z"/><path  d="M0 4.28v20.79h22.667v-8.264L9.016 4.285.001 4.28zm18.349 17.749H3.587V8.047H4.63v13.035h13.719v.947zM6.527 28.991l.545-1.123h.456l-.795 1.497v.872H6.32v-.872l-.796-1.497h.457l.545 1.123zm2.34.695H7.95l-.192.551H7.33l.895-2.369h.37l.897 2.369h-.43l-.193-.551zm-.802-.332h.687l-.343-.983-.343.983zm2.426.244c0-.109.03-.21.089-.301s.177-.201.353-.327a1.492 1.492 0 01-.189-.288l-.004-.009a.564.564 0 01-.054-.235c0-.185.056-.332.169-.439a.628.628 0 01.455-.163c.173 0 .313.051.423.153.111.1.167.226.167.375v.003a.52.52 0 01-.077.273l.001-.002a.903.903 0 01-.243.246l-.003.002-.161.117.458.541a.947.947 0 00.099-.435h.343c0 .292-.068.531-.205.718l.348.411h-.459l-.133-.157a.971.971 0 01-.58.19h-.027.001c-.234 0-.422-.062-.563-.185a.62.62 0 01-.21-.466v-.022.001zm.784.357a.609.609 0 00.374-.133l-.517-.611-.051.036c-.13.099-.195.211-.195.338 0 .11.035.199.106.267a.389.389 0 00.265.104h.02-.001zm-.218-1.527c0 .091.056.205.168.343l.18-.124.051-.04a.292.292 0 00.101-.221v-.009-.003a.206.206 0 00-.07-.155.247.247 0 00-.169-.067h-.019a.233.233 0 00-.174.078.285.285 0 00-.069.187v.011-.001zm4.305 1.038c-.024.253-.117.451-.28.593s-.379.211-.649.211h-.019a.928.928 0 01-.485-.136l.004.002a.89.89 0 01-.33-.377l-.002-.006a1.354 1.354 0 01-.122-.567v-.23c0-.223.04-.42.119-.591a.904.904 0 01.34-.393.95.95 0 01.515-.139c.261 0 .472.071.631.213s.253.343.279.602h-.41c-.02-.17-.069-.293-.15-.368-.079-.076-.196-.113-.35-.113a.48.48 0 00-.413.197c-.095.13-.144.321-.147.575v.21c0 .256.046.451.137.586s.227.201.403.201c.161 0 .283-.036.365-.109s.133-.193.155-.363h.41zm2.261-.351c0 .232-.04.436-.12.612-.081.175-.196.309-.345.403s-.32.14-.515.14a.96.96 0 01-.514-.14.946.946 0 01-.346-.396l-.002-.006a1.394 1.394 0 01-.123-.578v-.023.001-.133c0-.231.04-.435.122-.613s.198-.312.347-.405c.15-.094.321-.141.514-.141s.365.047.513.14a.91.91 0 01.347.4c.081.173.123.376.123.607v.132zm-.412-.124c0-.263-.05-.463-.149-.603a.485.485 0 00-.4-.21l-.023.001h.001-.017a.488.488 0 00-.4.209l-.001.002c-.1.139-.151.335-.153.591v.137c0 .26.051.461.152.604s.243.213.423.213c.183 0 .323-.07.42-.209.099-.139.148-.342.148-.609v-.124z"/></symbol>
<symbol id="icon-logo-2" viewBox="0 0 25 32"><path  d="M10.447 1.806h.084c.156 0 .324.015.49.03a13.96 13.96 0 012.18.329V.403a12.432 12.432 0 00-2.207-.357l-.042-.002c-.254-.02-.571-.035-.889-.043H9.779c-1.523.006-3.04.201-4.515.582a18.28 18.28 0 00-4.79 1.948v17.475a18.922 18.922 0 014.431-1.75l.135-.029a19.11 19.11 0 013.78-.586l.052-.002h.052c.216-.011.433-.017.655-.018V15.83c-1.78.024-3.493.264-5.129.695l.147-.033c-.603.157-1.185.326-1.731.513l-.623.212V3.591l.266-.128c1.89-.918 4.096-1.513 6.424-1.649l.047-.002.028-.001.029.001h-.001c.248-.012.497-.018.742-.018h.28c.129.003.258.006.388.014z"/><path  d="M14.837 3.651h-.016c-.915 0-1.811-.077-2.684-.225l.094.013c-.277-.047-.55-.103-.814-.164V20.55c1.12.277 2.271.412 3.425.404a18.446 18.446 0 004.644-.61l-.128.029a18.299 18.299 0 004.877-1.995l-.085.047V1.262a19.021 19.021 0 01-4.429 1.751l-.136.03a19.345 19.345 0 01-4.746.609zm6.908.299l.623-.209v13.63l-.266.129c-.903.442-1.962.834-3.065 1.118l-.119.026c-1.331.345-2.7.521-4.074.527-.411 0-.818-.017-1.214-.052l-.426-.038V5.064l.497.033c.361.023.735.034 1.141.034a21.098 21.098 0 005.173-.663 28.128 28.128 0 001.731-.518zM1.684 25.977a.916.916 0 00-.661-.281l-.033.001h.002-.014c-.139 0-.272.028-.393.078l.007-.003a.904.904 0 00-.51.512l-.002.006a1.002 1.002 0 00-.072.386v2.335c-.006.164.026.328.092.479a.83.83 0 00.554.479c.114.031.231.048.349.048a.984.984 0 00.968-.982v-.262h-.61v.221c0 .07-.013.138-.038.199l.001-.004a.38.38 0 01-.089.132.426.426 0 01-.255.089.308.308 0 01-.285-.125l-.001-.001a.548.548 0 01-.082-.289l.001-.025v.001-2.177a.74.74 0 01.075-.349.31.31 0 01.262-.143l.038.002H.987h.012c.107 0 .201.052.26.131l.001.001a.494.494 0 01.102.301v.012-.001.202h.604v-.238-.011c0-.143-.027-.28-.077-.405l.003.007a.955.955 0 00-.205-.329zm3.626-.026a1.083 1.083 0 00-.694-.257 1.075 1.075 0 00-.364.066.965.965 0 00-.556.512l-.002.006a1.083 1.083 0 00-.089.452v2.239c-.004.157.026.314.089.458.055.12.135.227.236.313a.964.964 0 00.322.197 1.049 1.049 0 001.059-.198l-.001.001a.948.948 0 00.23-.313c.063-.145.093-.302.089-.458v-2.24-.02c0-.156-.033-.305-.092-.439l.003.007a1.016 1.016 0 00-.23-.327zm-.285 3.018l.002.035a.398.398 0 01-.123.289.446.446 0 01-.575 0l.001.001a.398.398 0 01-.121-.326v.002-2.24l-.001-.034a.4.4 0 01.123-.289.446.446 0 01.575 0l-.001-.001a.398.398 0 01.121.326v-.002 2.239zm5.047 1v-4.24h-.586l-.771 2.244h-.01l-.778-2.244h-.58v4.24h.606V27.39h.011l.593 1.823h.302l.598-1.823h.01v2.578h.606zm3.441-3.942a.837.837 0 00-.343-.232 1.33 1.33 0 00-.414-.065h-.026.001-.9v4.239h.604v-1.655h.311c.189.009.376-.031.545-.116a.894.894 0 00.329-.32l.002-.004a1.02 1.02 0 00.139-.369c.023-.159.034-.32.033-.482a2.426 2.426 0 00-.059-.606.906.906 0 00-.223-.39zm-.312 1.292a.538.538 0 01-.057.224l.001-.003a.342.342 0 01-.154.147l-.002.001a.617.617 0 01-.254.054l-.033-.001h.002-.276V26.3h.311l.029-.001c.088 0 .172.02.247.055l-.004-.002c.062.036.111.09.141.155l.001.002a.615.615 0 01.053.236v.281c0 .098.006.201 0 .291H13.2zm3.173-1.59h-.495l-.934 4.24h.604l.177-.911h.823l.178.911h.604l-.958-4.24zm-.557 2.752l.297-1.537h.011l.295 1.537h-.604zm4.46-.198h-.011l-.913-2.554h-.58v4.24h.604v-2.55h.012l.923 2.549h.569v-4.239h-.604v2.554zm3.691-2.554l-.486 1.686h-.012l-.486-1.686h-.639l.83 2.448v1.791h.604v-1.791l.83-2.447h-.64zM0 31.166h.291v.817h.198v-.817h.289v-.167H0v.167zm2.447-.167l-.382.984h.21l.081-.224h.392l.084.224h.215l-.391-.985h-.21zm-.03.594l.134-.365.134.365h-.268zm2.449.027h.228v.127a.378.378 0 01-.234.083h-.014a.25.25 0 01-.195-.094.406.406 0 01-.073-.234l.001-.023v.001c0-.219.095-.329.283-.329l.021-.001c.097 0 .178.067.201.157v.001l.194-.038c-.042-.192-.18-.289-.417-.289h-.013a.492.492 0 00-.331.127.48.48 0 00-.141.38v-.002.023c0 .132.048.254.127.347l-.001-.001c.087.09.209.146.343.146L4.877 32h-.001.016c.155 0 .296-.06.402-.157v-.388h-.426v.166zm2.471-.621h-.199v.984h.689v-.167h-.49v-.817zm2.089 0h-.199v.984h.199v-.985zm2.042.656l-.403-.657h-.193v.984h.185v-.643l.396.643h.198v-.985h-.182v.658zm1.847-.105h.49v-.167h-.49v-.216h.527V31h-.727v.984h.747v-.167h-.548v-.266zm4.477-.164h-.388v-.388h-.198v.984h.198v-.431h.388v.431h.198v-.985h-.197v.388zm1.857.164h.492v-.167h-.492v-.216h.529V31h-.726v.984h.746v-.167h-.548v-.266zm2.519 0c.171-.027.258-.118.258-.274a.23.23 0 00-.096-.219h-.001a.555.555 0 00-.25-.059l-.04.001h.002-.417v.984h.198v-.412h.055c.039 0 .076.008.109.023l-.002-.001a.201.201 0 01.07.072l.215.313h.236l-.12-.192a.704.704 0 00-.215-.235l-.002-.002zm-.199-.137h-.146v-.247h.156a.515.515 0 01.205.024l-.004-.001a.13.13 0 01-.009.2.537.537 0 01-.164.025l-.039-.001h.002zm2.099.137h.49v-.167h-.49v-.216h.529V31h-.728v.984h.747v-.167h-.548v-.266z"/></symbol><symbol id="icon-logo-3" viewBox="0 0 31 32"><path  d="M4.834 30.852c.024 0 .045.01.061.025l.157.159a1.28 1.28 0 01-.441.302 1.64 1.64 0 01-.625.109h-.031c-.2 0-.391-.037-.568-.105l.011.004a1.277 1.277 0 01-.443-.286 1.28 1.28 0 01-.283-.433l-.003-.009a1.53 1.53 0 01-.1-.548v-.019-.019c0-.197.04-.386.111-.557l-.004.01a1.308 1.308 0 01.774-.729 1.72 1.72 0 01.586-.101h.021-.001c.193-.005.384.027.562.091.155.062.298.149.421.256l-.131.17a.118.118 0 01-.033.03h-.001a.088.088 0 01-.046.013h-.007a.118.118 0 01-.058-.019l-.07-.046-.098-.057a1.038 1.038 0 00-.303-.1l-.006-.001a1.221 1.221 0 00-.217-.018h-.017.001-.014c-.151 0-.296.028-.429.079l.008-.003a.992.992 0 00-.342.214.978.978 0 00-.221.34 1.189 1.189 0 00-.081.434v.016-.001c-.002.155.025.309.08.455.048.125.122.24.218.339.09.091.201.163.325.21.128.049.265.073.404.072.08.001.16-.004.239-.015a.907.907 0 00.362-.12c.059-.036.11-.073.157-.113l-.002.001a.12.12 0 01.074-.029zm4.528-.8c.002.192-.034.382-.106.562a1.239 1.239 0 01-.294.437h-.001c-.129.122-.283.22-.454.283l-.009.003a1.798 1.798 0 01-1.204-.004l.013.004a1.29 1.29 0 01-.755-.721l-.003-.009a1.54 1.54 0 01.004-1.138l-.004.01a1.31 1.31 0 01.297-.442c.129-.118.282-.213.451-.274l.009-.003a1.78 1.78 0 011.192 0 1.287 1.287 0 01.758.724c.072.181.109.373.107.566zm-.412 0v-.024a1.24 1.24 0 00-.078-.437l.003.009a.934.934 0 00-.21-.339.918.918 0 00-.325-.211l-.006-.002a1.3 1.3 0 00-.866 0 .92.92 0 00-.54.545l-.002.006c-.099.295-.099.61 0 .904a.916.916 0 00.543.55c.28.097.587.097.866 0a.913.913 0 00.331-.212.955.955 0 00.21-.338c.053-.145.078-.299.075-.452zm3.5.474l.042.101c.015-.036.029-.069.045-.101s.032-.067.051-.099l1.001-1.681c.02-.029.037-.047.057-.053s.044-.01.069-.01h.014-.001.296v2.734h-.35v-2.095l-.001-.047.002-.049v.002l-1.007 1.704a.153.153 0 01-.059.062h-.001a.171.171 0 01-.085.023h-.057c-.03 0-.061-.008-.086-.023s-.046-.036-.059-.062v-.001l-1.036-1.714v2.194h-.339v-2.728h.31c.024 0 .048.003.07.01h-.002a.116.116 0 01.055.052v.001l1.023 1.682c.018.028.036.06.05.094l.001.004zm3.769-.136v1.024h-.392v-2.73h.874c.165-.003.329.018.488.06a.937.937 0 01.345.17.702.702 0 01.194.263l.002.005c.046.111.069.23.067.349v.01a.82.82 0 01-.075.344l.002-.005a.757.757 0 01-.21.272l-.001.001a.973.973 0 01-.34.179l-.007.002a1.533 1.533 0 01-.472.064l-.474-.008zm0-.293h.475a.994.994 0 00.303-.041.653.653 0 00.221-.118l-.001.001a.493.493 0 00.132-.178l.001-.003a.54.54 0 00.047-.223v-.006l.001-.028a.48.48 0 00-.042-.197l.001.003a.524.524 0 00-.137-.186l-.001-.001a.799.799 0 00-.529-.147h.003-.475v1.125zm5.267 1.321h-.314a.143.143 0 01-.082-.026.179.179 0 01-.051-.062v-.001l-.267-.661h-1.338l-.277.661a.161.161 0 01-.048.061.138.138 0 01-.085.028h-.313l1.176-2.734h.408l1.192 2.733zm-1.939-1.015h1.105l-.466-1.112a1.775 1.775 0 01-.085-.244l-.003-.013-.045.143a1.464 1.464 0 01-.043.116l-.462 1.111zm3.632-1.706a.148.148 0 01.059.049l1.714 2.06v-2.122h.35v2.733h-.203a.186.186 0 01-.074-.016h.001a.204.204 0 01-.062-.051l-1.714-2.059a.737.737 0 010 .094v2.031h-.35v-2.733h.208c.024 0 .048.004.07.013zm5.014 1.634v1.085h-.392v-1.084l-1.083-1.646h.358c.028 0 .054.009.076.023.022.018.04.039.053.062l.678 1.062c.046.07.087.15.117.235l.002.008.051-.117a.969.969 0 01.069-.129l-.002.004.668-1.069a.316.316 0 01.051-.058.127.127 0 01.079-.028h.361l-1.086 1.653zm-15.937-6.234c.171.021.343.037.518.051 2.644-1.092 4.881-2.879 6.43-5.138s2.344-4.889 2.284-7.563l-2.914-2.69c.193.887.304 1.906.304 2.951 0 2.001-.406 3.908-1.139 5.642l.036-.095c-1.116 2.709-3.027 5.078-5.518 6.842z"/><path  d="M11.215 23.972l.078.015c2.663-1.758 4.693-4.213 5.827-7.048.642-1.548 1.014-3.346 1.014-5.232a14.05 14.05 0 00-.498-3.716l.023.098-4.151-3.832c1.678 3.149 2.354 6.674 1.949 10.164s-1.877 6.802-4.242 9.55zm14.077-9.366c-.705 2.937-2.418 5.586-4.884 7.554a15.221 15.221 0 01-2.24 1.497l-.08.04c2.008-.545 3.854-1.508 5.394-2.814s2.735-2.924 3.493-4.725l-1.684-1.552z"/><path  d="M24.632 14.173l-2.397-2.213c-.046 2.523-.823 4.987-2.25 7.139s-3.453 3.911-5.866 5.095h.012c.537 0 1.074-.03 1.608-.088 2.255-.85 4.248-2.202 5.799-3.934s2.613-3.794 3.093-5.998zM11.563 2.643L8.704 0C6.148.912 3.95 2.514 2.397 4.599.844 6.682.008 9.151.001 11.68c.01 2.796 1.029 5.507 2.896 7.707s4.476 3.762 7.414 4.44c2.622-2.949 4.158-6.593 4.383-10.403s-.872-7.586-3.131-10.781zm19.675 11.123c-.011-3.317-1.442-6.494-3.982-8.838s-5.982-3.667-9.575-3.676h-.024a14.38 14.38 0 00-4.93.865l.1-.032 17.506 16.16a11.36 11.36 0 00.905-4.481z"/></symbol><symbol id="icon-logo-4" viewBox="0 0 64 32"><path d="M9.964 9.701h-.002c-1.818 0-3.291 1.352-3.291 3.019v.002c0 1.667 1.474 3.019 3.291 3.019h.002c1.818 0 3.291-1.352 3.291-3.019v-.002c0-1.667-1.474-3.018-3.291-3.018zm24.292-.963c-.005-2.316-1.009-4.535-2.794-6.173S27.258.005 24.733 0c-2.525.004-4.946.926-6.732 2.564s-2.791 3.857-2.796 6.174v12.769S34.255 19.56 34.257 8.74v-.002zM0 25.697c.005 1.611.704 3.155 1.947 4.294 1.241 1.139 2.924 1.782 4.681 1.787 1.756-.005 3.439-.648 4.681-1.787s1.942-2.683 1.947-4.293v-8.886S0 18.169 0 25.696zm6.628 1.592c-.343 0-.679-.094-.965-.268a1.64 1.64 0 01-.635-.704l-.004-.01a1.453 1.453 0 01-.097-.93l-.002.01c.067-.309.232-.592.475-.815s.553-.375.889-.436a1.855 1.855 0 011.016.095l-.013-.004c.317.12.588.324.779.585a1.498 1.498 0 01.163 1.496c-.093.203-.22.375-.375.517l-.001.001c-.161.148-.353.266-.564.347s-.437.122-.666.122v-.005zm13.462-.885h-1.317v1.361h-.686v-3.33h2.167v.556h-1.481v.86h1.317v.553zm3.297-.228c0 .328-.058.615-.174.862s-.281.437-.498.571a1.354 1.354 0 01-.715.202h-.027.001a1.38 1.38 0 01-.738-.199 1.326 1.326 0 01-.499-.559l-.003-.008a1.934 1.934 0 01-.181-.823v-.029.001-.164c0-.328.059-.617.176-.865.119-.25.286-.442.501-.574.216-.134.463-.201.741-.201s.523.067.738.201c.216.133.383.324.501.574.119.248.178.535.178.862v.148zm-.694-.151c0-.349-.062-.614-.187-.796a.611.611 0 00-.509-.272l-.028.001h.001l-.026-.001a.61.61 0 00-.506.268l-.001.002c-.125.178-.188.44-.19.787v.162c0 .34.062.603.187.791s.304.281.539.281l.027.001a.602.602 0 00.502-.268l.001-.002c.123-.182.187-.445.187-.791v-.162zm2.919.866l.001-.019a.348.348 0 00-.136-.277l-.001-.001c-.091-.07-.256-.144-.494-.22a3.496 3.496 0 01-.585-.238l.02.009c-.378-.204-.567-.479-.567-.825a.8.8 0 01.151-.48.994.994 0 01.437-.332c.19-.08.404-.119.64-.119.238 0 .45.043.636.13s.329.207.432.364a.948.948 0 01.156.535h-.687c0-.152-.047-.271-.144-.354-.096-.086-.231-.128-.405-.128-.167 0-.297.036-.39.107a.334.334 0 00-.141.271v.008c0 .108.055.199.163.272s.271.141.482.205c.39.117.674.263.853.437s.268.39.268.649a.803.803 0 01-.328.679c-.218.163-.511.244-.88.244-.257 0-.489-.047-.7-.139a1.13 1.13 0 01-.48-.383l-.002-.003a.986.986 0 01-.165-.547v-.021.001h.688c0 .367.219.551.659.551.163 0 .29-.033.382-.098a.326.326 0 00.138-.266v-.013.001zm3.661-1.9h-1.019v2.774h-.687v-2.774h-1.005v-.556h2.711v.556zm2.396 1.331h-1.316v.892h1.545v.551h-2.232v-3.33h2.227v.556h-1.541v.794h1.317v.537zm1.864.224h-.546v1.219h-.686v-3.33h1.237c.393 0 .696.087.91.263s.32.423.32.743c0 .227-.049.417-.148.57-.11.16-.262.284-.44.359l-.007.002.72 1.36v.031h-.736l-.624-1.218zm-.546-.556h.553c.172 0 .306-.043.4-.13a.471.471 0 00.142-.338l-.001-.027v.001a.497.497 0 00-.135-.37c-.088-.09-.225-.135-.409-.135h-.551v.999zm4.156.601v1.174h-.686v-3.33h1.299c.25 0 .47.046.659.137.19.091.337.222.439.39s.153.359.153.574c0 .326-.112.584-.336.773-.223.187-.532.281-.926.281h-.601zm0-.555h.613c.182 0 .32-.043.414-.128.097-.086.144-.208.144-.366l.001-.025a.545.545 0 00-.145-.371.537.537 0 00-.398-.155h-.629v1.045zm4.34.286h-1.317v.892h1.545v.551H39.48v-3.33h2.227v.556h-1.541v.794h1.317v.537zm3.184-1.331h-1.02v2.774h-.686v-2.774h-1.006v-.556h2.712v.556zm2.396 1.331h-1.317v.892h1.545v.551h-2.232v-3.33h2.227v.556h-1.541v.794h1.317v.537zm1.863.224h-.546v1.219h-.687v-3.33h1.238c.393 0 .696.087.91.263s.32.423.32.743c0 .227-.05.417-.148.57-.11.16-.262.284-.44.359l-.007.002.72 1.36v.031h-.736l-.624-1.218zm-.546-.556h.553c.172 0 .305-.043.4-.13a.473.473 0 00.143-.339l-.001-.026v.001a.501.501 0 00-.135-.37c-.088-.09-.225-.135-.409-.135h-.551v.999zm4.031.902l.001-.02a.35.35 0 00-.137-.277l-.001-.001c-.091-.07-.256-.144-.494-.22a3.496 3.496 0 01-.585-.238l.02.009c-.378-.204-.567-.479-.567-.825a.8.8 0 01.151-.48.994.994 0 01.437-.332c.19-.08.404-.119.64-.119.238 0 .45.043.636.13s.329.207.432.364a.948.948 0 01.156.535h-.687a.444.444 0 00-.144-.354c-.096-.086-.231-.128-.405-.128-.167 0-.297.036-.39.107a.332.332 0 00-.141.271v.008c0 .108.055.199.163.272s.27.141.482.205c.39.117.674.263.853.437s.267.39.267.649a.806.806 0 01-.326.679c-.219.163-.512.244-.88.244-.257 0-.489-.047-.7-.139a1.13 1.13 0 01-.48-.383l-.002-.003a.986.986 0 01-.165-.547v-.021.001h.688c0 .367.219.551.659.551.163 0 .29-.033.382-.098a.326.326 0 00.138-.266v-.013.001z"/></symbol><symbol id="icon-logo-5" viewBox="0 0 40 32"><path d="M3.056 26.742c.157.194.24.438.236.688l.001.053c0 .324-.141.615-.365.815l-.001.001a1.575 1.575 0 01-1.061.317H.001v-4.361h1.827a1.548 1.548 0 011.017.294l-.004-.003a.994.994 0 01.353.818v-.003c.011.24-.065.477-.212.667a.99.99 0 01-.556.34c.247.046.471.177.63.373zm-2.188-.658h.78a.733.733 0 00.497-.145.518.518 0 00.169-.383l-.002-.045v.002l.001-.037a.535.535 0 00-.167-.389.75.75 0 00-.514-.147h.003-.767v1.144zm1.354 1.672a.542.542 0 00.186-.408l-.001-.036v.002l.001-.032a.552.552 0 00-.189-.416l-.001-.001a.8.8 0 00-.48-.159l-.054.002h.002-.818v1.199h.829a.816.816 0 00.524-.151zm4.567.861l-1.016-1.704h-.382v1.704h-.874v-4.361h1.654a1.624 1.624 0 011.156.373l-.003-.002a1.391 1.391 0 01.12 1.808l.003-.004a1.337 1.337 0 01-.789.443l1.083 1.743H6.79zm-1.397-2.299h.715c.497 0 .745-.22.745-.66l.001-.037a.647.647 0 00-.184-.453.767.767 0 00-.566-.177h.003-.724l.009 1.328zm6.176 1.421H9.826l-.308.878h-.916l1.6-4.313h.991l1.593 4.312h-.916l-.301-.878zm-.233-.66l-.637-1.84-.637 1.84h1.273zm6.215 1.538h-.869l-1.945-2.965v2.965h-.866v-4.361h.866l1.945 2.982v-2.982h.868v4.361zm4.952-1.044c-.182.33-.45.593-.775.764l-.01.005a2.545 2.545 0 01-1.22.274h-1.546v-4.361h1.546l.067-.001c.42 0 .817.1 1.168.277l-.015-.007c.332.168.606.433.785.761.171.333.272.727.272 1.144s-.1.811-.278 1.158l.007-.014zm-.993-.104c.239-.278.384-.642.384-1.041s-.145-.763-.386-1.043l.002.002a1.5 1.5 0 00-1.091-.371h.004-.603v2.823h.603a1.496 1.496 0 001.088-.372l-.002.001zM12.112 0s11.201 4.246 10.962 10.39v10.392S11.881 16.534 12.115 10.39L12.112 0zm20.942 18.349a15.15 15.15 0 017.049-2.628l.068-.006v-3.253c-2.995 1.181-5.436 3.227-7.081 5.827l-.035.06z"/><path  d="M31.782 19.329c1.749-3.487 4.693-6.158 8.283-7.513l.105-.035V2.408S24.218 8.456 24.555 17.205v14.796s.711-.27 1.829-.778c0-.473 0-.95.051-1.43a15.39 15.39 0 015.325-10.446l.021-.017z"/><path  d="M30.266 24.825a15.3 15.3 0 01.558-3.03 14.243 14.243 0 00-3.378 8.921v.016a43.71 43.71 0 003.286-1.741l-.218.118c-.191-.908-.3-1.952-.3-3.021 0-.445.019-.885.056-1.32l-.004.057zm.634.053a14.803 14.803 0 00.212 3.971l-.015-.092c4.358-2.619 9.255-6.664 9.067-11.553v-.426a14.265 14.265 0 00-8.297 3.894l.005-.005a14.228 14.228 0 00-.968 4.158l-.003.052z"/></symbol><symbol id="icon-logo-6" viewBox="0 0 63 32"><path  d="M31.815 14.712a2.178 2.178 0 01-.405-1.425v.007-2.055c0-.629.134-1.108.403-1.436s.731-.491 1.386-.489c.615 0 1.052.139 1.311.418.282.356.419.791.387 1.229v.483h-1.1v-.489c.004-.16-.007-.32-.032-.479a.471.471 0 00-.157-.284l-.001-.001a.609.609 0 00-.353-.113l-.048.002h.002a.647.647 0 00-.421.118l.002-.001a.554.554 0 00-.182.309l-.001.004c-.027.14-.043.3-.043.465v.046-.002 2.494c-.018.24.031.481.141.7a.528.528 0 00.217.168l.003.001a.556.556 0 00.287.04h-.003a.57.57 0 00.391-.114l-.001.001a.505.505 0 00.163-.3v-.003c.026-.166.038-.333.035-.5V13h1.1v.462a1.953 1.953 0 01-.384 1.297l.004-.005c-.252.306-.683.458-1.317.458s-1.112-.164-1.384-.501zm4.584.021c-.278-.32-.417-.786-.417-1.403v-2.162c0-.61.139-1.072.417-1.385s.742-.469 1.395-.469c.647 0 1.109.156 1.388.469.277.313.42.775.42 1.386v2.162c0 .61-.142 1.078-.425 1.4s-.742.483-1.383.483c-.64 0-1.114-.164-1.395-.481zm1.907-.519c.1-.199.145-.42.132-.639v-2.646a1.237 1.237 0 00-.133-.634l.003.007a.526.526 0 00-.221-.172l-.004-.001a.567.567 0 00-.293-.036h.003a.566.566 0 00-.296.038l.004-.001a.527.527 0 00-.225.171l-.001.001a1.198 1.198 0 00-.134.553l.002.078v-.004 2.659c-.014.22.031.439.132.64.064.067.142.12.228.156l.005.002a.748.748 0 00.571-.001l-.005.002a.692.692 0 00.232-.158v-.012zm2.618-4.837h1.185L43 13.365l.912-3.988h1.153l.116 5.756h-.851l-.091-4.001-.88 4.001h-.683l-.912-4.016-.085 4.016h-.862l.107-5.756zm5.587 0h1.846c1.064 0 1.596.545 1.596 1.634 0 1.044-.56 1.564-1.68 1.564h-.629v2.559h-1.139l.007-5.756zm1.577 2.461a.842.842 0 00.627-.182.977.977 0 00.164-.65l.001-.064c0-.163-.02-.321-.059-.472l.003.013a.448.448 0 00-.084-.159l.001.001a.488.488 0 00-.141-.115l-.003-.001a1.109 1.109 0 00-.511-.092h.003-.442v1.721h.442zm3.507-2.461h1.224l1.256 5.756h-1.062l-.248-1.328h-1.092l-.256 1.328H50.34l1.256-5.756zm1.046 3.762l-.427-2.416-.426 2.416h.853zm2.448-3.762h.798l1.527 3.284V9.377h.946v5.756h-.759l-1.536-3.428v3.428h-.978l.002-5.756zm5.486 3.562l-1.27-3.553h1.069l.775 2.283.727-2.283h1.045l-1.253 3.553v2.195h-1.094v-2.195zm-27 4.712v.302h-.93v2.339h-.39v-2.34h-.934v-.301h2.254zm2.915 2.64h-.309a.129.129 0 01-.077-.025.131.131 0 01-.049-.06v-.001l-.269-.627h-1.29l-.269.627a.173.173 0 01-.041.071.132.132 0 01-.078.025h-.307l1.14-2.64h.396l1.153 2.63zm-1.887-.98h1.076l-.455-1.075a1.937 1.937 0 01-.082-.235l-.003-.014-.043.14-.041.11-.452 1.073zm3.852.721c.071.003.142.003.213 0a1.25 1.25 0 00.183-.032c.056-.012.111-.028.164-.048.05-.019.1-.043.153-.065v-.594h-.461a.085.085 0 01-.073-.042.058.058 0 01-.006-.026v-.203h.885v1.011a1.667 1.667 0 01-.759.27l-.007.001c-.098.01-.211.016-.326.016h-.022c-.201 0-.394-.036-.572-.102l.011.004a1.39 1.39 0 01-.456-.277l.001.001a1.277 1.277 0 01-.291-.41l-.003-.008a1.367 1.367 0 01-.105-.529v-.019V18.963c0-.192.038-.376.106-.544l-.003.01a1.21 1.21 0 01.294-.418 1.38 1.38 0 01.446-.271l.009-.003c.196-.068.403-.101.611-.099.107 0 .212.008.317.023a1.46 1.46 0 01.498.172c.07.041.137.087.199.138l-.11.164a.1.1 0 01-.036.035h-.001a.101.101 0 01-.052.014.145.145 0 01-.071-.022h.001a1.485 1.485 0 01-.117-.066l.006.003a1.04 1.04 0 00-.146-.069l-.007-.002a1.378 1.378 0 00-.201-.057l-.009-.001a1.592 1.592 0 00-.277-.023h-.013.001-.013c-.153 0-.299.027-.435.076l.009-.003a.903.903 0 00-.547.538 1.308 1.308 0 00.003.889l-.003-.009a.99.99 0 00.561.542c.145.046.299.064.452.052zm3.632-.043h1.244v.302h-1.625V17.65h.39l-.009 2.34zm2.54.302h-.39V17.65h.39v2.64zm1.449-2.628a.184.184 0 01.059.048l1.666 1.99-.002-.047.002-.049v.002-1.968h.34v2.651h-.196l-.014.001a.175.175 0 01-.072-.015h.001a.23.23 0 01-.061-.05l-1.664-1.988v2.053h-.326v-2.64h.203c.023 0 .045.005.065.013h-.001zm4.933-.012v.291h-1.381v.872h1.119v.28h-1.119v.9h1.381v.292h-1.782v-2.635h1.782zM10.171 1.346l17.305 4.507v15.792L10.172 17.14V1.346zM9.062 0v17.908l19.522 5.086V5.088L9.062 0z"/><path d="M19.524 31.307L0 26.217V8.311l19.524 5.088v17.908zM9.385 1.143l17.079 4.45-7.263 6.664L2.12 7.805l7.265-6.663zM9.062 0L0 8.311l19.524 5.087 9.06-8.311L9.062-.001zm11.562 30.299l7.96-7.303-7.96-2.076v9.38z"/></symbol></defs></svg>